<svg width="1688" height="851" viewBox="0 0 1688 851" fill="none" xmlns="http://www.w3.org/2000/svg">
<g clip-path="url(#clip0_549_26)">
<path d="M413.7 842.522L371.94 724.322H145.78L102.44 842.522H0L200.94 322.432H319.14L520.08 842.512H413.7V842.522ZM177.3 637.632H341.2L260.04 409.112L177.3 637.632Z" fill="white"/>
<path d="M516.141 582.471C516.141 432.751 626.461 314.551 776.181 314.551C918.021 314.551 1004.7 416.991 1020.46 519.431H925.901C910.141 456.391 862.861 401.231 776.181 401.231C681.621 401.231 610.701 472.151 610.701 582.471C610.701 692.791 681.621 763.711 776.181 763.711C862.861 763.711 910.141 708.551 925.901 645.511H1020.46C1004.7 747.951 918.021 850.391 776.181 850.391C626.461 850.391 516.141 732.191 516.141 582.471Z" fill="white"/>
<path d="M1063.8 680.981H1162.3C1166.24 728.261 1205.64 767.661 1284.44 767.661C1347.48 767.661 1390.82 736.141 1390.82 692.801C1390.82 649.461 1349.84 639.221 1284.44 625.821L1245.04 617.941C1166.24 602.181 1071.68 582.481 1071.68 476.101C1071.68 369.721 1150.48 314.561 1276.56 314.561C1394.76 314.561 1477.5 373.661 1481.44 476.101H1382.94C1379 428.821 1339.6 397.301 1268.68 397.301C1213.52 397.301 1170.18 420.941 1170.18 464.281C1170.18 507.621 1216.67 519.441 1276.56 531.261L1315.96 539.141C1394.76 554.901 1489.32 574.601 1489.32 680.981C1489.32 787.361 1410.52 850.401 1276.56 850.401C1150.48 850.401 1067.74 787.361 1063.8 680.981Z" fill="white"/>
<path d="M1687.9 251.73L1685.89 260.93C1679.14 291.37 1658.53 318.58 1627.95 334.78C1627.75 334.93 1627.56 335.02 1627.36 335.12C1608.27 345.05 1587.33 352.3 1565.26 356.36V321.42C1587.33 317.36 1608.28 310.16 1627.36 300.13C1646.4 290.15 1663.48 277.42 1677.82 262.35L1677.87 262.3L1684.72 255.06L1687.9 251.73Z" fill="white"/>
<path d="M1687.92 311.641L1685.89 320.811C1679.14 351.281 1658.52 378.471 1627.94 394.701C1627.75 394.801 1627.56 394.901 1627.37 395.001C1608.3 404.981 1587.35 412.211 1565.26 416.261V381.341C1587.35 377.251 1608.29 370.061 1627.37 360.041C1646.39 350.061 1663.49 337.341 1677.83 322.251L1687.91 311.641H1687.92Z" fill="white"/>
<path d="M1687.92 371.381L1685.89 380.551C1679.14 411.021 1658.52 438.211 1627.94 454.441C1627.75 454.541 1627.56 454.641 1627.37 454.741C1608.3 464.721 1587.35 471.951 1565.26 476.001V441.081C1587.35 436.991 1608.29 429.801 1627.37 419.781C1646.39 409.801 1663.49 397.081 1677.83 381.991L1687.91 371.381H1687.92Z" fill="white"/>
<path d="M1654.42 249.429C1646.98 256.279 1638.37 262.199 1628.58 266.749C1627.7 267.139 1626.82 267.579 1625.94 267.969C1625.94 267.969 1371.41 19.3592 429.92 208.949C945.15 81.2192 1248.62 96.4392 1416.14 134.909C1519.55 158.649 1582.97 193.489 1617.97 218.499C1634.41 230.249 1646.31 241.009 1654.43 249.429H1654.42Z" fill="white"/>
<path d="M1682.76 203.33C1679.53 214.49 1674.39 225.16 1667.44 234.75C1658.97 226.09 1647.18 215.52 1631.42 204.07C1595.35 177.89 1530.07 141.43 1424.02 116.66C1125.05 46.8203 716.21 115.68 390.48 198.73C712.89 99.8802 1121.28 12.3302 1424.9 75.7502C1596.73 111.62 1665.73 182.53 1682.76 203.33Z" fill="white"/>
<path d="M1686.72 178.381C1677.57 168.931 1664.26 156.941 1645.95 143.931C1608.22 117.161 1540.49 80.3606 1432.09 57.2606C1311.11 31.5206 1164.69 27.6506 996.97 45.7606C831.8 63.6206 645.34 102.971 440.92 163.071C1022.38 -42.3894 1506.34 -45.2294 1658.68 107.071C1678.65 127.041 1687.55 152.881 1686.72 178.371V178.381Z" fill="white"/>
</g>
<defs>
<clipPath id="clip0_549_26">
<rect width="1687.92" height="850.39" fill="white"/>
</clipPath>
</defs>
</svg>
